<svg width="18" height="18" viewBox="0 0 18 18" fill="none" xmlns="http://www.w3.org/2000/svg">
<path d="M8.57945 9.00264H2.78952M2.6254 9.83037L1.66883 12.9467C1.14492 14.6534 0.882964 15.5068 1.07095 16.0323C1.2342 16.4887 1.58483 16.8347 2.01749 16.9664C2.5157 17.118 3.2682 16.7487 4.77319 16.0102L14.4216 11.275C15.8906 10.5541 16.6251 10.1937 16.8521 9.6929C17.0493 9.25785 17.0493 8.74733 16.8521 8.31228C16.6251 7.81162 15.8906 7.45113 14.4216 6.73019L4.75655 1.98695C3.25609 1.25058 2.50587 0.882393 2.00815 1.03343C1.5759 1.1646 1.22531 1.50968 1.06149 1.9652C0.872853 2.48974 1.13201 3.34127 1.65033 5.04434L2.62726 8.25435C2.71628 8.54683 2.7608 8.69313 2.77836 8.84264C2.79395 8.97544 2.79379 9.10979 2.77789 9.24249C2.75997 9.392 2.71512 9.53809 2.6254 9.83037Z" stroke="white" stroke-width="2" stroke-linecap="round" stroke-linejoin="round"/>
</svg>
